<?xml version="1.0"?>
<svg version="1.1" width="48" height="48" xmlns="http://www.w3.org/2000/svg"><defs><radialGradient id="radialGrad1" cx="24" cy="23" fx="24" fy="23" r="18" fr="0" gradientUnits="userSpaceOnUse"><stop offset="0.23618090152740479" stop-color="rgb(16,121,73)" stop-opacity="1"/><stop offset="0.94444444444444442" stop-color="rgb(39,170,110)" stop-opacity="1"/></radialGradient><linearGradient id="linearGrad2" x1="28" y1="30" x2="20.5" y2="15" gradientUnits="userSpaceOnUse"><stop offset="0.090452261306532666" stop-color="rgb(38,162,105)" stop-opacity="1"/><stop offset="0.82412060301507539" stop-color="rgb(46,194,126)" stop-opacity="1"/></linearGradient></defs><g id="Group" fill="none" stroke="none"><path id="New Polygon" fill="url(#radialGrad1)" stroke="rgba(4,83,46,1.000000)" d="M 4.500000 8.500000 C -1.500000 11.000000 3.000000 18.000000 3.500000 23.000000 C 4.000000 28.000000 1.000000 35.000000 7.500000 37.500000 C 11.250000 35.500000 18.500000 29.500000 22.500000 29.500000 L 25.500000 29.500000 C 29.500000 29.500000 36.750000 35.500000 40.500000 37.500000 C 47.000000 35.000000 44.000000 28.000000 44.500000 23.000000 C 45.000000 18.000000 49.500000 11.000000 43.500000 8.500000 C 38.625000 9.750000 29.500000 16.500000 24.000000 16.500000 C 18.500000 16.500000 9.375000 9.750000 4.500000 8.500000 Z"/><circle id="Circle" fill="rgba(119,118,123,1.000000)" stroke="rgba(61,56,70,1.000000)" cx="24" cy="15" r="4.5"/><rect id="Rectangle" fill="url(#linearGrad2)" stroke="rgba(4,83,46,1.000000)" x="18.5" y="14.5" width="11" height="17"/><line id="Line" fill="none" stroke="rgba(4,83,46,1.000000)" x1="9" y1="18.5" x2="18.5" y2="20"/><line id="Line" fill="none" stroke="rgba(4,83,46,1.000000)" x1="36" y1="27" x2="29.5" y2="26"/><path id="Line" fill="none" stroke="rgba(61,56,70,1.000000)" d="M 12.000000 6.500000 C 15.000000 6.500000 20.000000 9.000000 22.000000 11.000000 C 20.000000 9.000000 15.000000 6.500000 12.000000 6.500000 Z"/><path id="Line" fill="none" stroke="rgba(61,56,70,1.000000)" d="M 36.000000 6.500000 C 33.000000 6.500000 28.122777 9.000000 26.000000 11.000000 C 28.000000 9.000000 33.000000 6.500000 36.000000 6.500000 Z"/><line id="Line" fill="none" stroke="rgba(4,83,46,1.000000)" x1="12" y1="27" x2="18.5" y2="26"/><line id="Line" fill="none" stroke="rgba(4,83,46,1.000000)" x1="39" y1="18.5" x2="29.5" y2="20"/></g></svg>
