<?xml version="1.0"?>
<svg version="1.1" width="16" height="16" xmlns="http://www.w3.org/2000/svg"><defs><radialGradient id="radialGrad1" cx="8" cy="7" fx="8" fy="7" r="8" fr="0" gradientUnits="userSpaceOnUse"><stop offset="0.125" stop-color="rgb(16,121,73)" stop-opacity="1"/><stop offset="0.75" stop-color="rgb(39,170,110)" stop-opacity="1"/></radialGradient><linearGradient id="linearGrad2" x1="6.5" y1="4" x2="10" y2="11" gradientUnits="userSpaceOnUse"><stop offset="0.14285714285714285" stop-color="rgb(39,170,110)" stop-opacity="1"/><stop offset="0.8571428571428571" stop-color="rgb(16,121,73)" stop-opacity="1"/></linearGradient></defs><g id="Group" fill="none" stroke="none"><path id="New Path" fill="url(#radialGrad1)" stroke="rgba(4,83,46,1.000000)" d="M 2.500000 3.500000 L 8.000000 6.000000 L 13.500000 3.500000 C 16.000000 4.500000 13.500000 7.000000 13.500000 8.500000 C 13.500000 10.000000 14.500000 11.500000 12.500000 12.500000 L 8.000000 9.500000 L 3.500000 12.500000 C 1.500000 11.500000 2.500000 10.000000 2.500000 8.500000 C 2.500000 7.000000 0.000000 4.500000 2.500000 3.500000 Z"/><path id="Line" fill="none" stroke="rgba(84,84,84,1.000000)" d="M 3.000000 1.500000 C 6.000000 1.500000 6.500000 2.500000 7.500000 3.500000 L 8.500000 3.500000 C 9.500000 2.500000 10.000000 1.500000 13.000000 1.500000 C 10.000000 1.500000 9.500000 2.500000 8.500000 3.500000 L 7.500000 3.500000 C 6.500000 2.500000 6.000000 1.500000 3.000000 1.500000 Z"/><circle id="Circle" fill="rgba(168,168,168,1.000000)" stroke="rgba(84,84,84,1.000000)" cx="8" cy="4" r="1.5"/><rect id="Rectangle" fill="url(#linearGrad2)" stroke="rgba(4,83,46,1.000000)" x="6.5" y="4.5" width="3" height="6"/></g></svg>
